<?xml version="1.0" standalone="no"?>
<!DOCTYPE svg PUBLIC "-//W3C//DTD SVG 20010904//EN"
 "http://www.w3.org/TR/2001/REC-SVG-20010904/DTD/svg10.dtd">
<svg version="1.0" xmlns="http://www.w3.org/2000/svg"
 width="64.000000pt" height="64.000000pt" viewBox="0 0 64.000000 64.000000"
 preserveAspectRatio="xMidYMid meet">

<g transform="translate(0.000000,64.000000) scale(0.100000,-0.100000)"
fill="#000000" stroke="none">
<path d="M84 633 c-12 -2 -34 -18 -50 -34 l-29 -30 0 -249 0 -250 33 -32 32
-33 250 0 250 0 32 33 33 32 0 250 0 250 -33 32 -32 33 -233 1 c-127 1 -242 0
-253 -3z m394 -196 c-29 -30 -68 -62 -86 -72 -19 -9 -32 -18 -29 -21 6 -6 88
24 107 40 8 7 22 17 30 21 13 8 13 7 1 -9 -13 -16 -12 -17 15 -11 28 6 28 6
10 -9 -11 -9 -26 -16 -33 -16 -7 0 -13 -5 -13 -11 0 -5 -4 -8 -8 -5 -5 3 -9
-8 -9 -24 0 -24 7 -31 41 -45 35 -14 39 -17 23 -26 -9 -6 -23 -7 -30 -2 -6 4
-16 8 -22 8 -5 1 -32 11 -58 24 -27 12 -51 20 -54 17 -3 -3 2 -8 11 -12 9 -3
14 -10 11 -14 -3 -5 0 -12 6 -16 8 -4 9 -3 5 4 -21 34 52 -8 94 -55 21 -22 25
-30 10 -18 -36 29 -88 65 -95 65 -11 0 2 -42 16 -51 8 -5 9 -9 3 -9 -5 0 -15
5 -22 12 -10 10 -36 14 -112 18 -19 1 -21 3 -8 8 12 5 15 11 8 22 -7 12 -12
12 -22 2 -17 -17 -33 -15 -18 3 7 9 11 17 9 19 -20 16 -47 22 -70 16 -36 -11
-115 25 -83 36 10 4 22 12 26 17 8 12 78 11 90 -1 9 -9 58 -4 58 6 0 3 -8 15
-17 26 -15 17 -13 17 8 -2 25 -22 29 -22 60 -9 19 8 42 24 53 35 10 12 23 19
28 16 4 -3 31 15 60 41 28 25 53 44 55 41 2 -2 -20 -29 -49 -59z m-35 24 c-17
-16 -28 -33 -25 -37 4 -4 2 -4 -4 -1 -6 3 -29 -1 -52 -8 -28 -10 -49 -12 -64
-5 -19 7 -16 9 20 9 44 1 109 28 131 55 8 9 16 16 20 16 3 0 -8 -14 -26 -29z
m122 -261 c3 -5 1 -10 -4 -10 -6 0 -11 5 -11 10 0 6 2 10 4 10 3 0 8 -4 11
-10z"/>
<path d="M398 333 c7 -3 16 -2 19 1 4 3 -2 6 -13 5 -11 0 -14 -3 -6 -6z"/>
<path d="M245 300 c3 -5 14 -10 23 -10 15 0 15 2 2 10 -20 13 -33 13 -25 0z"/>
<path d="M290 277 c0 -19 36 -42 80 -52 l35 -7 -30 30 c-35 36 -85 53 -85 29z"/>
</g>
</svg>
